<svg width="16" height="16" viewBox="0 0 16 16" fill="none" xmlns="http://www.w3.org/2000/svg">
<g id="icon-cross" clip-path="url(#clip0_362_779)">
<path id="Vector" d="M8.94252 7.99999L15.8045 1.13799C15.926 1.01225 15.9932 0.84385 15.9916 0.669052C15.9901 0.494255 15.92 0.327046 15.7964 0.203441C15.6728 0.0798355 15.5056 0.00972286 15.3308 0.00820391C15.156 0.00668497 14.9876 0.0738812 14.8619 0.19532L7.99986 7.05732L1.13786 0.19532C1.01212 0.0738812 0.843721 0.00668497 0.668923 0.00820391C0.494126 0.00972286 0.326917 0.0798355 0.203312 0.203441C0.0797065 0.327046 0.00959389 0.494255 0.00807494 0.669052C0.00655599 0.84385 0.0737523 1.01225 0.195191 1.13799L7.05719 7.99999L0.195191 14.862C0.0702103 14.987 0 15.1565 0 15.3333C0 15.5101 0.0702103 15.6796 0.195191 15.8047C0.320209 15.9296 0.489748 15.9998 0.666524 15.9998C0.8433 15.9998 1.01284 15.9296 1.13786 15.8047L7.99986 8.94265L14.8619 15.8047C14.9869 15.9296 15.1564 15.9998 15.3332 15.9998C15.51 15.9998 15.6795 15.9296 15.8045 15.8047C15.9295 15.6796 15.9997 15.5101 15.9997 15.3333C15.9997 15.1565 15.9295 14.987 15.8045 14.862L8.94252 7.99999Z" fill="#87929A"/>
</g>
<defs>
<clipPath id="clip0_362_779">
<rect width="16" height="16" fill="white"/>
</clipPath>
</defs>
</svg>
