<svg width="160" height="31" viewBox="0 0 160 31" fill="none" xmlns="http://www.w3.org/2000/svg">
<g id="&#235;&#160;&#136;&#236;&#157;&#180;&#236;&#150;&#180; 1">
<g id="Group">
<path id="Vector" d="M116.112 3.53883C113.342 1.32533 109.689 0 105.459 0C95.8043 0 89.155 6.90057 89.155 15.5C89.155 24.0994 95.8043 31 105.459 31C109.689 31 113.342 29.6747 116.112 27.4612C113.085 24.3595 111.333 20.1539 111.333 15.5C111.333 10.8461 113.085 6.63772 116.112 3.53883Z" fill="#1E3B4B"/>
<g id="Group_2">
<path id="Vector_2" d="M87.752 20.6961H83.1172L87.016 16.496C86.9994 16.1667 86.9883 15.8347 86.9883 15.4999C86.9883 9.6231 89.7747 4.46012 94.4096 1.33633C93.7925 0.846592 93.015 0.550537 92.1655 0.550537H71.6117C69.3178 0.550537 67.4611 2.40987 67.4611 4.70084V6.02894C67.4611 8.47208 69.4423 10.4559 71.8884 10.4559H79.9046L69.434 19.0803C67.9813 20.2755 67.1401 22.0602 67.1401 23.9416V24.7745C67.1401 27.8291 69.6167 30.3054 72.6715 30.3054H92.9209C93.5601 30.3054 94.1578 30.1339 94.6752 29.8406C91.3326 27.6769 88.9142 24.4674 87.7575 20.6933L87.752 20.6961Z" fill="#1E3B4B"/>
<path id="Vector_3" d="M54.7825 27.0986C53.2883 29.6082 50.3552 29.9568 46.7165 29.9568C39.2399 29.9568 33.5259 23.8171 33.5259 15.3256C33.5259 6.8341 39.2371 0.69165 46.7165 0.69165C49.5223 0.69165 53.2883 1.00984 54.7825 3.57196C54.752 2.3158 55.762 1.27823 57.021 1.27823H63.2442C64.6166 1.27823 65.729 2.39051 65.729 3.76287V26.7279C65.729 28.186 64.5474 29.3675 63.0892 29.3675H56.9989C55.7537 29.3675 54.752 28.341 54.7825 27.0959V27.0986ZM49.7049 20.4194C52.9092 20.4194 54.8849 18.8506 54.8849 15.3256C54.8849 11.8006 52.9092 9.90532 49.7049 9.90532C46.5006 9.90532 44.525 11.8006 44.525 15.3256C44.525 18.8506 46.5006 20.4194 49.7049 20.4194Z" fill="#1E3B4B"/>
<path id="Vector_4" d="M31.3592 15.3256C31.3592 10.301 33.1799 6.02897 36.1407 3.14866C35.222 2.44311 34.0654 2.01424 32.7815 2.01424H32.4439C30.3824 2.01424 28.5589 3.35894 27.9502 5.32895L25.8749 12.0552L23.4509 5.72461C22.7564 3.90678 21.0104 2.70596 19.0651 2.70596C17.2831 2.70596 15.6893 3.81271 15.0695 5.4839L12.5238 12.3319L10.5121 5.63054C9.8674 3.48345 7.88894 2.01147 5.64762 2.01147H5.16338C1.65751 2.01424 -0.827312 5.43132 0.254611 8.7654L5.96583 26.3572C6.6908 28.5928 8.7744 30.1035 11.1236 30.1035H11.8929C14.1038 30.1035 16.0795 28.7311 16.8515 26.6615L19.2007 20.3614L21.5776 26.739C22.333 28.7643 24.2644 30.1063 26.4255 30.1063H26.9568C29.4997 30.1063 31.7521 28.4738 32.5435 26.0583L33.3183 23.6899C32.0703 21.2966 31.362 18.4605 31.362 15.3284L31.3592 15.3256Z" fill="#1E3B4B"/>
<path id="Vector_5" d="M129.756 0C120.102 0 113.453 6.90057 113.453 15.5C113.453 24.0994 120.102 31 129.756 31C139.41 31 146.06 24.0994 146.06 15.5C146.06 6.90057 139.41 0 129.756 0Z" fill="#1E3B4B"/>
<path id="Vector_6" d="M154.281 14.0142C151.104 13.9976 148.514 16.557 148.497 19.7334C148.472 24.1576 153.76 28.1668 154.203 28.1695C154.646 28.1723 159.975 24.2185 160 19.797C160.017 16.6206 157.457 14.0308 154.281 14.0142ZM154.239 21.5346C153.262 21.5291 152.474 20.7322 152.479 19.7555C152.485 18.7788 153.282 17.9902 154.258 17.9958C155.235 18.0013 156.024 18.7982 156.018 19.7749C156.013 20.7516 155.216 21.5401 154.239 21.5346Z" fill="#27D562"/>
</g>
</g>
</g>
</svg>
