<svg width="56" height="56" viewBox="0 0 56 56" fill="none" xmlns="http://www.w3.org/2000/svg">
<g id="icon-picture" clip-path="url(#clip0_362_842)">
<path id="Vector" d="M36.8889 24.8298C40.0338 24.8298 42.5833 22.2803 42.5833 19.1354C42.5833 15.9904 40.0338 13.4409 36.8889 13.4409C33.7439 13.4409 31.1944 15.9904 31.1944 19.1354C31.1944 22.2803 33.7439 24.8298 36.8889 24.8298Z" fill="#87929A"/>
<path id="Vector_2" d="M52.833 37.334C52.2289 37.334 51.6495 37.574 51.2223 38.0012C50.7952 38.4284 50.5552 39.0077 50.5552 39.6118V44.1674C50.5552 45.9797 49.8353 47.7178 48.5538 48.9993C47.2723 50.2807 45.5342 51.0007 43.7219 51.0007H39.1663C38.5622 51.0007 37.9829 51.2407 37.5557 51.6678C37.1285 52.095 36.8886 52.6744 36.8886 53.2785C36.8886 53.8826 37.1285 54.4619 37.5557 54.8891C37.9829 55.3163 38.5622 55.5562 39.1663 55.5562H43.7219C46.7413 55.5526 49.636 54.3516 51.771 52.2165C53.9061 50.0815 55.1071 47.1868 55.1107 44.1674V39.6118C55.1107 39.0077 54.8708 38.4284 54.4436 38.0012C54.0164 37.574 53.4371 37.334 52.833 37.334Z" fill="#87929A"/>
<path id="Vector_3" d="M2.72222 19.1111C3.32633 19.1111 3.90569 18.8711 4.33286 18.444C4.76002 18.0168 5 17.4374 5 16.8333V12.2778C5 10.4655 5.71994 8.72738 7.00144 7.44588C8.28294 6.16438 10.021 5.44444 11.8333 5.44444H16.3889C16.993 5.44444 17.5724 5.20446 17.9995 4.7773C18.4267 4.35013 18.6667 3.77077 18.6667 3.16666C18.6667 2.56256 18.4267 1.9832 17.9995 1.55603C17.5724 1.12887 16.993 0.888885 16.3889 0.888885L11.8333 0.888885C8.81392 0.892502 5.91922 2.09356 3.78417 4.22861C1.64912 6.36366 0.448063 9.25836 0.444447 12.2778L0.444447 16.8333C0.444447 17.4374 0.684426 18.0168 1.11159 18.444C1.53876 18.8711 2.11812 19.1111 2.72222 19.1111Z" fill="#87929A"/>
<path id="Vector_4" d="M16.3889 51.0007H11.8333C10.021 51.0007 8.28292 50.2807 7.00142 48.9993C5.71992 47.7178 4.99999 45.9797 4.99999 44.1674V39.6118C4.99999 39.0077 4.76001 38.4284 4.33284 38.0012C3.90567 37.574 3.32631 37.334 2.72221 37.334C2.1181 37.334 1.53874 37.574 1.11158 38.0012C0.684409 38.4284 0.444429 39.0077 0.444429 39.6118L0.444429 44.1674C0.448046 47.1868 1.64911 50.0815 3.78415 52.2165C5.9192 54.3516 8.81391 55.5526 11.8333 55.5562H16.3889C16.993 55.5562 17.5723 55.3163 17.9995 54.8891C18.4267 54.4619 18.6667 53.8826 18.6667 53.2785C18.6667 52.6744 18.4267 52.095 17.9995 51.6678C17.5723 51.2407 16.993 51.0007 16.3889 51.0007Z" fill="#87929A"/>
<path id="Vector_5" d="M43.7219 0.888855H39.1663C38.5622 0.888855 37.9829 1.12883 37.5557 1.556C37.1285 1.98317 36.8886 2.56253 36.8886 3.16663C36.8886 3.77074 37.1285 4.3501 37.5557 4.77727C37.9829 5.20443 38.5622 5.44441 39.1663 5.44441H43.7219C45.5342 5.44441 47.2723 6.16435 48.5538 7.44585C49.8353 8.72735 50.5552 10.4654 50.5552 12.2777V16.8333C50.5552 17.4374 50.7952 18.0168 51.2223 18.4439C51.6495 18.8711 52.2289 19.1111 52.833 19.1111C53.4371 19.1111 54.0164 18.8711 54.4436 18.4439C54.8708 18.0168 55.1107 17.4374 55.1107 16.8333V12.2777C55.1071 9.25833 53.9061 6.36363 51.771 4.22858C49.636 2.09353 46.7413 0.892472 43.7219 0.888855V0.888855Z" fill="#87929A"/>
<path id="Vector_6" d="M43.0545 40.2776L25.7752 22.9984C24.4938 21.7174 22.756 20.9977 20.9441 20.9977C19.1321 20.9977 17.3944 21.7174 16.1129 22.9984L10.89 28.2214C10.0356 29.0755 9.55545 30.234 9.55519 31.4422V37.3325C9.55519 39.1448 10.2751 40.8829 11.5566 42.1644C12.8381 43.4459 14.5762 44.1658 16.3885 44.1658H41.4441C41.8945 44.1657 42.3348 44.0321 42.7093 43.7818C43.0838 43.5315 43.3757 43.1758 43.548 42.7596C43.7204 42.3435 43.7655 41.8856 43.6776 41.4438C43.5898 41.002 43.3729 40.5962 43.0545 40.2776Z" fill="#87929A"/>
</g>
<defs>
<clipPath id="clip0_362_842">
<rect width="54.6667" height="54.6667" fill="white" transform="translate(0.444447 0.888885)"/>
</clipPath>
</defs>
</svg>
