<svg width="24" height="24" viewBox="0 0 24 24" fill="none" xmlns="http://www.w3.org/2000/svg">
<g id="Group">
<path id="Vector" d="M22.9981 11H12.998V0.999984C12.998 0.447703 12.5503 0 11.998 0C11.4458 0 10.9981 0.447703 10.9981 0.999984V11H0.998031C0.44575 11 -0.00195312 11.4477 -0.00195312 12C-0.00195312 12.5523 0.44575 13 0.998031 13H10.998V23C10.998 23.5522 11.4457 24 11.998 24C12.5503 24 12.998 23.5522 12.998 23V13H22.998C23.5502 13 23.998 12.5523 23.998 12C23.998 11.4477 23.5503 11 22.9981 11Z" fill="#374957"/>
</g>
</svg>
