<svg width="36" height="36" viewBox="0 0 36 36" fill="none" xmlns="http://www.w3.org/2000/svg">
<g clip-path="url(#clip0_324_1042)">
<path d="M34.5 16.5H19.5V1.49998C19.5 0.671555 18.8284 0 18 0C17.1716 0 16.5 0.671555 16.5 1.49998V16.5H1.49998C0.671555 16.5 0 17.1716 0 18C0 18.8284 0.671555 19.5 1.49998 19.5H16.5V34.5C16.5 35.3284 17.1715 35.9999 17.9999 35.9999C18.8283 35.9999 19.4999 35.3284 19.4999 34.5V19.5H34.4999C35.3283 19.5 35.9999 18.8284 35.9999 18C36 17.1716 35.3284 16.5 34.5 16.5Z" fill="#87929A"/>
</g>
<defs>
<clipPath id="clip0_324_1042">
<rect width="36" height="36" fill="white"/>
</clipPath>
</defs>
</svg>
