<svg width="20" height="21" viewBox="0 0 20 21" fill="none" xmlns="http://www.w3.org/2000/svg">
<g clip-path="url(#clip0_456_272)">
<path d="M20.002 6.33333V8C20.002 8.46 19.6286 8.83333 19.1686 8.83333C18.7086 8.83333 18.3353 8.46 18.3353 8V6.33333C18.3353 5.41417 17.5878 4.66667 16.6686 4.66667H14.9778L16.0195 5.75583C16.3386 6.0875 16.3286 6.615 15.9961 6.93417C15.8345 7.09 15.627 7.16667 15.4186 7.16667C15.2003 7.16667 14.982 7.08083 14.8178 6.91083L12.9745 4.99333C12.3403 4.35917 12.3403 3.3075 12.9853 2.66167L14.8178 0.755833C15.137 0.424167 15.6653 0.414167 15.9961 0.7325C16.3278 1.05167 16.3386 1.57917 16.0195 1.91083L14.972 3H16.6686C18.507 3 20.002 4.495 20.002 6.33333ZM5.18612 14.0892C4.86695 13.7575 4.33945 13.7483 4.00779 14.0667C3.67612 14.3858 3.66529 14.9133 3.98445 15.245L5.02612 16.3342H3.33529C2.41612 16.3342 1.66862 15.5867 1.66862 14.6675V13.0008C1.66862 12.54 1.29529 12.1675 0.835286 12.1675C0.375286 12.1675 0.00195313 12.54 0.00195313 13.0008V14.6675C0.00195313 16.5058 1.49695 18.0008 3.33529 18.0008H5.03112L3.98445 19.09C3.66529 19.4217 3.67529 19.9492 4.00779 20.2683C4.16945 20.4242 4.37695 20.5008 4.58529 20.5008C4.80362 20.5008 5.02195 20.415 5.18612 20.245L7.01862 18.3383C7.66279 17.6933 7.66279 16.6417 7.02945 16.0067L5.18612 14.0892ZM10.002 7.16667C10.002 9.0075 8.50945 10.5 6.66862 10.5H3.33529C1.49445 10.5 0.00195312 9.0075 0.00195312 7.16667V3.83333C0.00195312 1.9925 1.49445 0.5 3.33529 0.5H6.66862C8.50945 0.5 10.002 1.9925 10.002 3.83333V7.16667ZM7.91862 3.51333C7.91862 3.23 7.68862 3 7.40529 3H5.52445V2.68C5.52445 2.39667 5.29445 2.16667 5.01112 2.16667H4.99362C4.71029 2.16667 4.48029 2.39667 4.48029 2.68V3H2.59862C2.31529 3 2.08529 3.23 2.08529 3.51333V3.53083C2.08529 3.81417 2.31529 4.04417 2.59862 4.04417H6.09195C5.99945 4.84667 5.68862 5.83667 5.00612 6.60333C4.77612 6.345 4.58362 6.06333 4.42945 5.77C4.34112 5.60167 4.16445 5.49917 3.97529 5.49917C3.58862 5.49917 3.33445 5.90917 3.51445 6.25167C3.70195 6.61 3.93195 6.95417 4.20612 7.26833C3.75695 7.54167 3.21529 7.73417 2.55862 7.7975C2.29195 7.82333 2.08529 8.04167 2.08529 8.30917V8.32667C2.08529 8.63083 2.34862 8.86667 2.65112 8.83833C3.60612 8.74917 4.38362 8.43417 5.01112 7.98667C5.63529 8.43083 6.40362 8.7475 7.35112 8.83833C7.65445 8.8675 7.91779 8.63167 7.91779 8.3275V8.31C7.91779 8.04667 7.71779 7.82417 7.45529 7.79917C6.79529 7.73667 6.25362 7.54083 5.80195 7.26667C6.62695 6.32083 7.03945 5.1075 7.14112 4.045H7.40445C7.68779 4.045 7.91779 3.815 7.91779 3.53167V3.51417L7.91862 3.51333ZM20.002 13.8333V17.1667C20.002 19.0075 18.5095 20.5 16.6686 20.5H13.3353C11.4945 20.5 10.002 19.0075 10.002 17.1667V13.8333C10.002 11.9925 11.4945 10.5 13.3353 10.5H16.6686C18.5095 10.5 20.002 11.9925 20.002 13.8333ZM17.3386 18.12L16.2028 13.1633C16.1136 12.7767 15.867 12.425 15.5011 12.2717C14.7353 11.9508 13.9553 12.4008 13.7878 13.1225L12.6103 18.1167C12.5236 18.4825 12.802 18.8333 13.1778 18.8333C13.4478 18.8333 13.6828 18.6475 13.7453 18.3842L13.9736 17.4167H15.9811L16.202 18.3808C16.2628 18.6458 16.4986 18.8333 16.7703 18.8333H16.772C17.1461 18.8333 17.4236 18.485 17.3403 18.12H17.3386ZM14.9903 13.3333C14.9586 13.3333 14.9311 13.355 14.9245 13.3858L14.2486 16.25H15.7128L15.057 13.3858C15.0495 13.355 15.022 13.3333 14.9903 13.3333Z" fill="#D7DBDD"/>
</g>
<defs>
<clipPath id="clip0_456_272">
<rect width="20" height="20" fill="white" transform="translate(0.00195312 0.5)"/>
</clipPath>
</defs>
</svg>
